<mxfile host="app.diagrams.net" agent="Mozilla/5.0 (Windows NT 10.0; Win64; x64) AppleWebKit/537.36 (KHTML, like Gecko) Chrome/140.0.0.0 Safari/537.36" version="28.2.1">
  <diagram name="Page-1" id="SCVZVuWW8CiVOKduzIab">
    <mxGraphModel dx="4712" dy="3684" grid="0" gridSize="10" guides="1" tooltips="1" connect="1" arrows="1" fold="1" page="1" pageScale="1" pageWidth="1200" pageHeight="1600" background="none" math="0" shadow="1">
      <root>
        <mxCell id="0" />
        <mxCell id="1" parent="0" />
        <mxCell id="9lOi9YtCr-9xyIQbAMfV-2" style="edgeStyle=orthogonalEdgeStyle;rounded=0;orthogonalLoop=1;jettySize=auto;html=1;exitX=0.5;exitY=1;exitDx=0;exitDy=0;exitPerimeter=0;labelBackgroundColor=none;fontColor=default;" parent="1" source="9lOi9YtCr-9xyIQbAMfV-3" edge="1">
          <mxGeometry relative="1" as="geometry">
            <mxPoint x="975" y="-360" as="targetPoint" />
          </mxGeometry>
        </mxCell>
        <mxCell id="9lOi9YtCr-9xyIQbAMfV-3" value="&lt;font style=&quot;font-size: 21px;&quot;&gt;START&lt;/font&gt;" style="strokeWidth=2;html=1;shape=mxgraph.flowchart.terminator;whiteSpace=wrap;labelBackgroundColor=none;" parent="1" vertex="1">
          <mxGeometry x="858" y="-523" width="234" height="93" as="geometry" />
        </mxCell>
        <mxCell id="9lOi9YtCr-9xyIQbAMfV-4" style="edgeStyle=orthogonalEdgeStyle;rounded=0;orthogonalLoop=1;jettySize=auto;html=1;entryX=0.5;entryY=0;entryDx=0;entryDy=0;labelBackgroundColor=none;fontColor=default;" parent="1" source="9lOi9YtCr-9xyIQbAMfV-6" target="9lOi9YtCr-9xyIQbAMfV-13" edge="1">
          <mxGeometry relative="1" as="geometry" />
        </mxCell>
        <mxCell id="9lOi9YtCr-9xyIQbAMfV-5" style="edgeStyle=orthogonalEdgeStyle;rounded=0;orthogonalLoop=1;jettySize=auto;html=1;exitX=1;exitY=0.5;exitDx=0;exitDy=0;labelBackgroundColor=none;fontColor=default;" parent="1" source="9lOi9YtCr-9xyIQbAMfV-6" edge="1">
          <mxGeometry relative="1" as="geometry">
            <mxPoint x="1120" y="-329.9565217391305" as="targetPoint" />
          </mxGeometry>
        </mxCell>
        <mxCell id="9lOi9YtCr-9xyIQbAMfV-6" value="FRONTEND" style="rounded=0;whiteSpace=wrap;html=1;labelBackgroundColor=none;" parent="1" vertex="1">
          <mxGeometry x="915" y="-360" width="120" height="60" as="geometry" />
        </mxCell>
        <mxCell id="9lOi9YtCr-9xyIQbAMfV-7" style="edgeStyle=orthogonalEdgeStyle;rounded=0;orthogonalLoop=1;jettySize=auto;html=1;exitX=0.5;exitY=1;exitDx=0;exitDy=0;entryX=0.5;entryY=0;entryDx=0;entryDy=0;labelBackgroundColor=none;fontColor=default;" parent="1" source="9lOi9YtCr-9xyIQbAMfV-13" target="9lOi9YtCr-9xyIQbAMfV-19" edge="1">
          <mxGeometry relative="1" as="geometry" />
        </mxCell>
        <mxCell id="9lOi9YtCr-9xyIQbAMfV-8" style="edgeStyle=orthogonalEdgeStyle;rounded=0;orthogonalLoop=1;jettySize=auto;html=1;exitX=0;exitY=0.5;exitDx=0;exitDy=0;entryX=0.5;entryY=1;entryDx=0;entryDy=0;" parent="1" source="9lOi9YtCr-9xyIQbAMfV-13" target="9lOi9YtCr-9xyIQbAMfV-74" edge="1">
          <mxGeometry relative="1" as="geometry" />
        </mxCell>
        <mxCell id="9lOi9YtCr-9xyIQbAMfV-9" style="edgeStyle=orthogonalEdgeStyle;rounded=0;orthogonalLoop=1;jettySize=auto;html=1;exitX=0;exitY=0.5;exitDx=0;exitDy=0;entryX=0.5;entryY=1;entryDx=0;entryDy=0;" parent="1" source="9lOi9YtCr-9xyIQbAMfV-13" target="9lOi9YtCr-9xyIQbAMfV-72" edge="1">
          <mxGeometry relative="1" as="geometry" />
        </mxCell>
        <mxCell id="9lOi9YtCr-9xyIQbAMfV-10" style="edgeStyle=orthogonalEdgeStyle;rounded=0;orthogonalLoop=1;jettySize=auto;html=1;exitX=0;exitY=0.5;exitDx=0;exitDy=0;entryX=0.5;entryY=1;entryDx=0;entryDy=0;" parent="1" source="9lOi9YtCr-9xyIQbAMfV-13" target="9lOi9YtCr-9xyIQbAMfV-71" edge="1">
          <mxGeometry relative="1" as="geometry">
            <Array as="points">
              <mxPoint x="200" y="-180" />
              <mxPoint x="200" y="-630" />
              <mxPoint x="390" y="-630" />
            </Array>
          </mxGeometry>
        </mxCell>
        <mxCell id="9lOi9YtCr-9xyIQbAMfV-11" style="edgeStyle=orthogonalEdgeStyle;rounded=0;orthogonalLoop=1;jettySize=auto;html=1;exitX=0;exitY=0.5;exitDx=0;exitDy=0;entryX=0.5;entryY=1;entryDx=0;entryDy=0;" parent="1" source="9lOi9YtCr-9xyIQbAMfV-86" target="9lOi9YtCr-9xyIQbAMfV-70" edge="1">
          <mxGeometry relative="1" as="geometry">
            <Array as="points">
              <mxPoint x="200" y="-180" />
              <mxPoint x="200" y="-630" />
              <mxPoint x="560" y="-630" />
            </Array>
          </mxGeometry>
        </mxCell>
        <mxCell id="9lOi9YtCr-9xyIQbAMfV-12" style="edgeStyle=orthogonalEdgeStyle;rounded=0;orthogonalLoop=1;jettySize=auto;html=1;exitX=0;exitY=0.5;exitDx=0;exitDy=0;entryX=0.5;entryY=1;entryDx=0;entryDy=0;" parent="1" target="9lOi9YtCr-9xyIQbAMfV-69" edge="1">
          <mxGeometry relative="1" as="geometry">
            <mxPoint x="790" y="-180" as="sourcePoint" />
            <Array as="points">
              <mxPoint x="200" y="-180" />
              <mxPoint x="200" y="-630" />
              <mxPoint x="730" y="-630" />
            </Array>
          </mxGeometry>
        </mxCell>
        <mxCell id="9lOi9YtCr-9xyIQbAMfV-13" value="BACKEND" style="rounded=0;whiteSpace=wrap;html=1;labelBackgroundColor=none;" parent="1" vertex="1">
          <mxGeometry x="915" y="-210" width="120" height="60" as="geometry" />
        </mxCell>
        <mxCell id="9lOi9YtCr-9xyIQbAMfV-14" style="edgeStyle=orthogonalEdgeStyle;rounded=0;orthogonalLoop=1;jettySize=auto;html=1;exitX=0.5;exitY=1;exitDx=0;exitDy=0;labelBackgroundColor=none;fontColor=default;" parent="1" source="9lOi9YtCr-9xyIQbAMfV-19" target="9lOi9YtCr-9xyIQbAMfV-22" edge="1">
          <mxGeometry relative="1" as="geometry" />
        </mxCell>
        <mxCell id="9lOi9YtCr-9xyIQbAMfV-15" style="edgeStyle=orthogonalEdgeStyle;rounded=0;orthogonalLoop=1;jettySize=auto;html=1;" parent="1" source="9lOi9YtCr-9xyIQbAMfV-19" edge="1">
          <mxGeometry relative="1" as="geometry">
            <mxPoint x="1130" y="-30" as="targetPoint" />
          </mxGeometry>
        </mxCell>
        <mxCell id="9lOi9YtCr-9xyIQbAMfV-16" style="edgeStyle=orthogonalEdgeStyle;rounded=0;orthogonalLoop=1;jettySize=auto;html=1;exitX=0;exitY=0.5;exitDx=0;exitDy=0;entryX=0.5;entryY=0;entryDx=0;entryDy=0;" parent="1" source="9lOi9YtCr-9xyIQbAMfV-22" target="9lOi9YtCr-9xyIQbAMfV-117" edge="1">
          <mxGeometry relative="1" as="geometry">
            <Array as="points">
              <mxPoint x="850" y="120" />
              <mxPoint x="850" y="-20" />
              <mxPoint x="520" y="-20" />
            </Array>
          </mxGeometry>
        </mxCell>
        <mxCell id="9lOi9YtCr-9xyIQbAMfV-17" style="edgeStyle=orthogonalEdgeStyle;rounded=0;orthogonalLoop=1;jettySize=auto;html=1;exitX=0;exitY=0.5;exitDx=0;exitDy=0;entryX=0.5;entryY=1;entryDx=0;entryDy=0;" parent="1" edge="1">
          <mxGeometry relative="1" as="geometry">
            <mxPoint x="885" y="119.91" as="sourcePoint" />
            <mxPoint x="640" y="169.91" as="targetPoint" />
            <Array as="points">
              <mxPoint x="850" y="119.91" />
              <mxPoint x="850" y="249.91" />
              <mxPoint x="640" y="249.91" />
            </Array>
          </mxGeometry>
        </mxCell>
        <mxCell id="9lOi9YtCr-9xyIQbAMfV-18" style="edgeStyle=orthogonalEdgeStyle;rounded=0;orthogonalLoop=1;jettySize=auto;html=1;exitX=0;exitY=0.5;exitDx=0;exitDy=0;entryX=0.5;entryY=0;entryDx=0;entryDy=0;" parent="1" source="9lOi9YtCr-9xyIQbAMfV-22" target="9lOi9YtCr-9xyIQbAMfV-123" edge="1">
          <mxGeometry relative="1" as="geometry">
            <Array as="points">
              <mxPoint x="915" y="80" />
              <mxPoint x="365" y="80" />
            </Array>
          </mxGeometry>
        </mxCell>
        <mxCell id="9lOi9YtCr-9xyIQbAMfV-19" value="DATABASE" style="rounded=0;whiteSpace=wrap;html=1;labelBackgroundColor=none;" parent="1" vertex="1">
          <mxGeometry x="912.5" y="-60" width="125" height="60" as="geometry" />
        </mxCell>
        <mxCell id="9lOi9YtCr-9xyIQbAMfV-20" style="edgeStyle=orthogonalEdgeStyle;rounded=0;orthogonalLoop=1;jettySize=auto;html=1;exitX=0.5;exitY=1;exitDx=0;exitDy=0;labelBackgroundColor=none;fontColor=default;" parent="1" source="9lOi9YtCr-9xyIQbAMfV-22" target="9lOi9YtCr-9xyIQbAMfV-24" edge="1">
          <mxGeometry relative="1" as="geometry" />
        </mxCell>
        <mxCell id="9lOi9YtCr-9xyIQbAMfV-21" style="edgeStyle=orthogonalEdgeStyle;rounded=0;orthogonalLoop=1;jettySize=auto;html=1;exitX=0;exitY=0.5;exitDx=0;exitDy=0;entryX=0.5;entryY=1;entryDx=0;entryDy=0;" parent="1" source="9lOi9YtCr-9xyIQbAMfV-22" target="9lOi9YtCr-9xyIQbAMfV-118" edge="1">
          <mxGeometry relative="1" as="geometry">
            <Array as="points">
              <mxPoint x="850" y="120" />
              <mxPoint x="850" y="300" />
              <mxPoint x="520" y="300" />
            </Array>
          </mxGeometry>
        </mxCell>
        <mxCell id="9lOi9YtCr-9xyIQbAMfV-22" value="TESTING&amp;nbsp;" style="rounded=0;whiteSpace=wrap;html=1;labelBackgroundColor=none;" parent="1" vertex="1">
          <mxGeometry x="915" y="90" width="120" height="60" as="geometry" />
        </mxCell>
        <mxCell id="9lOi9YtCr-9xyIQbAMfV-23" style="edgeStyle=orthogonalEdgeStyle;rounded=0;orthogonalLoop=1;jettySize=auto;html=1;exitX=0.5;exitY=1;exitDx=0;exitDy=0;labelBackgroundColor=none;fontColor=default;" parent="1" source="9lOi9YtCr-9xyIQbAMfV-24" target="9lOi9YtCr-9xyIQbAMfV-26" edge="1">
          <mxGeometry relative="1" as="geometry" />
        </mxCell>
        <mxCell id="9lOi9YtCr-9xyIQbAMfV-133" style="edgeStyle=orthogonalEdgeStyle;rounded=0;orthogonalLoop=1;jettySize=auto;html=1;" parent="1" source="9lOi9YtCr-9xyIQbAMfV-24" target="9lOi9YtCr-9xyIQbAMfV-134" edge="1">
          <mxGeometry relative="1" as="geometry">
            <mxPoint x="1120" y="270" as="targetPoint" />
          </mxGeometry>
        </mxCell>
        <mxCell id="9lOi9YtCr-9xyIQbAMfV-24" value="DEPLOYMENT" style="rounded=0;whiteSpace=wrap;html=1;labelBackgroundColor=none;" parent="1" vertex="1">
          <mxGeometry x="915" y="240" width="120" height="60" as="geometry" />
        </mxCell>
        <mxCell id="9lOi9YtCr-9xyIQbAMfV-25" style="edgeStyle=orthogonalEdgeStyle;rounded=0;orthogonalLoop=1;jettySize=auto;html=1;exitX=0.5;exitY=1;exitDx=0;exitDy=0;labelBackgroundColor=none;fontColor=default;" parent="1" source="9lOi9YtCr-9xyIQbAMfV-26" edge="1">
          <mxGeometry relative="1" as="geometry">
            <mxPoint x="975" y="540" as="targetPoint" />
          </mxGeometry>
        </mxCell>
        <mxCell id="9lOi9YtCr-9xyIQbAMfV-156" style="edgeStyle=orthogonalEdgeStyle;rounded=0;orthogonalLoop=1;jettySize=auto;html=1;" parent="1" source="9lOi9YtCr-9xyIQbAMfV-26" target="9lOi9YtCr-9xyIQbAMfV-157" edge="1">
          <mxGeometry relative="1" as="geometry">
            <mxPoint x="790" y="420" as="targetPoint" />
          </mxGeometry>
        </mxCell>
        <mxCell id="9lOi9YtCr-9xyIQbAMfV-26" value="MAINTENENCE AND UPDATE" style="rounded=0;whiteSpace=wrap;html=1;labelBackgroundColor=none;" parent="1" vertex="1">
          <mxGeometry x="915" y="390" width="120" height="60" as="geometry" />
        </mxCell>
        <mxCell id="9lOi9YtCr-9xyIQbAMfV-28" style="edgeStyle=orthogonalEdgeStyle;rounded=0;orthogonalLoop=1;jettySize=auto;html=1;exitX=1;exitY=0.5;exitDx=0;exitDy=0;exitPerimeter=0;entryX=0.5;entryY=1;entryDx=0;entryDy=0;" parent="1" source="9lOi9YtCr-9xyIQbAMfV-34" target="9lOi9YtCr-9xyIQbAMfV-46" edge="1">
          <mxGeometry relative="1" as="geometry" />
        </mxCell>
        <mxCell id="9lOi9YtCr-9xyIQbAMfV-29" style="edgeStyle=orthogonalEdgeStyle;rounded=0;orthogonalLoop=1;jettySize=auto;html=1;exitX=1;exitY=0.5;exitDx=0;exitDy=0;exitPerimeter=0;" parent="1" source="9lOi9YtCr-9xyIQbAMfV-34" target="9lOi9YtCr-9xyIQbAMfV-48" edge="1">
          <mxGeometry relative="1" as="geometry" />
        </mxCell>
        <mxCell id="9lOi9YtCr-9xyIQbAMfV-30" style="edgeStyle=orthogonalEdgeStyle;rounded=0;orthogonalLoop=1;jettySize=auto;html=1;exitX=1;exitY=0.5;exitDx=0;exitDy=0;exitPerimeter=0;entryX=0.5;entryY=1;entryDx=0;entryDy=0;" parent="1" source="9lOi9YtCr-9xyIQbAMfV-34" target="9lOi9YtCr-9xyIQbAMfV-44" edge="1">
          <mxGeometry relative="1" as="geometry" />
        </mxCell>
        <mxCell id="9lOi9YtCr-9xyIQbAMfV-31" style="edgeStyle=orthogonalEdgeStyle;rounded=0;orthogonalLoop=1;jettySize=auto;html=1;exitX=0.7;exitY=0.1;exitDx=0;exitDy=0;exitPerimeter=0;entryX=0.5;entryY=1;entryDx=0;entryDy=0;" parent="1" source="9lOi9YtCr-9xyIQbAMfV-34" target="9lOi9YtCr-9xyIQbAMfV-38" edge="1">
          <mxGeometry relative="1" as="geometry" />
        </mxCell>
        <mxCell id="9lOi9YtCr-9xyIQbAMfV-32" style="edgeStyle=orthogonalEdgeStyle;rounded=0;orthogonalLoop=1;jettySize=auto;html=1;exitX=0.7;exitY=0.1;exitDx=0;exitDy=0;exitPerimeter=0;entryX=0.5;entryY=1;entryDx=0;entryDy=0;" parent="1" source="9lOi9YtCr-9xyIQbAMfV-34" target="9lOi9YtCr-9xyIQbAMfV-40" edge="1">
          <mxGeometry relative="1" as="geometry" />
        </mxCell>
        <mxCell id="9lOi9YtCr-9xyIQbAMfV-33" style="edgeStyle=orthogonalEdgeStyle;rounded=0;orthogonalLoop=1;jettySize=auto;html=1;exitX=0.7;exitY=0.1;exitDx=0;exitDy=0;exitPerimeter=0;entryX=0.5;entryY=1;entryDx=0;entryDy=0;" parent="1" source="9lOi9YtCr-9xyIQbAMfV-34" target="9lOi9YtCr-9xyIQbAMfV-42" edge="1">
          <mxGeometry relative="1" as="geometry" />
        </mxCell>
        <mxCell id="9lOi9YtCr-9xyIQbAMfV-34" value="HTML,CSS,&lt;div&gt;JAVASCRIPT&lt;div&gt;REACT,ANGULAR&lt;/div&gt;&lt;div&gt;TAILWIND&lt;/div&gt;&lt;/div&gt;" style="shape=or;whiteSpace=wrap;html=1;labelBackgroundColor=none;" parent="1" vertex="1">
          <mxGeometry x="1120" y="-400" width="110" height="140" as="geometry" />
        </mxCell>
        <mxCell id="9lOi9YtCr-9xyIQbAMfV-35" style="edgeStyle=orthogonalEdgeStyle;rounded=0;orthogonalLoop=1;jettySize=auto;html=1;exitX=0.5;exitY=0;exitDx=0;exitDy=0;entryX=0;entryY=0.5;entryDx=0;entryDy=0;" parent="1" source="9lOi9YtCr-9xyIQbAMfV-36" target="9lOi9YtCr-9xyIQbAMfV-51" edge="1">
          <mxGeometry relative="1" as="geometry">
            <Array as="points">
              <mxPoint x="1175" y="-895" />
            </Array>
          </mxGeometry>
        </mxCell>
        <mxCell id="9lOi9YtCr-9xyIQbAMfV-36" value="HOME PAGE" style="rounded=1;whiteSpace=wrap;html=1;labelBackgroundColor=none;" parent="1" vertex="1">
          <mxGeometry x="1115" y="-740" width="120" height="60" as="geometry" />
        </mxCell>
        <mxCell id="9lOi9YtCr-9xyIQbAMfV-37" style="edgeStyle=orthogonalEdgeStyle;rounded=0;orthogonalLoop=1;jettySize=auto;html=1;exitX=0.5;exitY=0;exitDx=0;exitDy=0;entryX=0;entryY=0.5;entryDx=0;entryDy=0;" parent="1" source="9lOi9YtCr-9xyIQbAMfV-38" target="9lOi9YtCr-9xyIQbAMfV-53" edge="1">
          <mxGeometry relative="1" as="geometry">
            <Array as="points">
              <mxPoint x="1330" y="-795" />
            </Array>
          </mxGeometry>
        </mxCell>
        <mxCell id="9lOi9YtCr-9xyIQbAMfV-38" value="ABOUT US" style="rounded=1;whiteSpace=wrap;html=1;labelBackgroundColor=none;" parent="1" vertex="1">
          <mxGeometry x="1270" y="-740" width="120" height="60" as="geometry" />
        </mxCell>
        <mxCell id="9lOi9YtCr-9xyIQbAMfV-39" style="edgeStyle=orthogonalEdgeStyle;rounded=0;orthogonalLoop=1;jettySize=auto;html=1;exitX=0.5;exitY=0;exitDx=0;exitDy=0;entryX=0;entryY=0.5;entryDx=0;entryDy=0;" parent="1" source="9lOi9YtCr-9xyIQbAMfV-40" target="9lOi9YtCr-9xyIQbAMfV-61" edge="1">
          <mxGeometry relative="1" as="geometry" />
        </mxCell>
        <mxCell id="9lOi9YtCr-9xyIQbAMfV-40" value="ACADEMICS" style="rounded=1;whiteSpace=wrap;html=1;labelBackgroundColor=none;" parent="1" vertex="1">
          <mxGeometry x="1430" y="-740" width="120" height="60" as="geometry" />
        </mxCell>
        <mxCell id="9lOi9YtCr-9xyIQbAMfV-41" style="edgeStyle=orthogonalEdgeStyle;rounded=0;orthogonalLoop=1;jettySize=auto;html=1;exitX=1;exitY=0.5;exitDx=0;exitDy=0;entryX=0;entryY=0.5;entryDx=0;entryDy=0;" parent="1" source="9lOi9YtCr-9xyIQbAMfV-42" target="9lOi9YtCr-9xyIQbAMfV-55" edge="1">
          <mxGeometry relative="1" as="geometry" />
        </mxCell>
        <mxCell id="9lOi9YtCr-9xyIQbAMfV-42" value="ADMISSIONS" style="rounded=1;whiteSpace=wrap;html=1;labelBackgroundColor=none;" parent="1" vertex="1">
          <mxGeometry x="1590" y="-740" width="120" height="60" as="geometry" />
        </mxCell>
        <mxCell id="9lOi9YtCr-9xyIQbAMfV-43" style="edgeStyle=orthogonalEdgeStyle;rounded=0;orthogonalLoop=1;jettySize=auto;html=1;exitX=1;exitY=0.5;exitDx=0;exitDy=0;entryX=0;entryY=0.5;entryDx=0;entryDy=0;" parent="1" source="9lOi9YtCr-9xyIQbAMfV-44" target="9lOi9YtCr-9xyIQbAMfV-63" edge="1">
          <mxGeometry relative="1" as="geometry">
            <Array as="points">
              <mxPoint x="1310" y="-460" />
            </Array>
          </mxGeometry>
        </mxCell>
        <mxCell id="9lOi9YtCr-9xyIQbAMfV-44" value="STUDENT PORTAL" style="rounded=1;whiteSpace=wrap;html=1;labelBackgroundColor=none;" parent="1" vertex="1">
          <mxGeometry x="1190" y="-620" width="120" height="60" as="geometry" />
        </mxCell>
        <mxCell id="9lOi9YtCr-9xyIQbAMfV-45" style="edgeStyle=orthogonalEdgeStyle;rounded=0;orthogonalLoop=1;jettySize=auto;html=1;exitX=1;exitY=0.5;exitDx=0;exitDy=0;entryX=0;entryY=0.5;entryDx=0;entryDy=0;" parent="1" source="9lOi9YtCr-9xyIQbAMfV-46" target="9lOi9YtCr-9xyIQbAMfV-57" edge="1">
          <mxGeometry relative="1" as="geometry">
            <Array as="points">
              <mxPoint x="1470" y="-540" />
            </Array>
          </mxGeometry>
        </mxCell>
        <mxCell id="9lOi9YtCr-9xyIQbAMfV-46" value="STAFF PORTAL" style="rounded=1;whiteSpace=wrap;html=1;labelBackgroundColor=none;" parent="1" vertex="1">
          <mxGeometry x="1350" y="-620" width="120" height="60" as="geometry" />
        </mxCell>
        <mxCell id="9lOi9YtCr-9xyIQbAMfV-47" style="edgeStyle=orthogonalEdgeStyle;rounded=0;orthogonalLoop=1;jettySize=auto;html=1;exitX=1;exitY=0.5;exitDx=0;exitDy=0;entryX=0;entryY=0.5;entryDx=0;entryDy=0;" parent="1" source="9lOi9YtCr-9xyIQbAMfV-48" target="9lOi9YtCr-9xyIQbAMfV-59" edge="1">
          <mxGeometry relative="1" as="geometry" />
        </mxCell>
        <mxCell id="9lOi9YtCr-9xyIQbAMfV-48" value="CONTACT PAGE" style="rounded=1;whiteSpace=wrap;html=1;labelBackgroundColor=none;" parent="1" vertex="1">
          <mxGeometry x="1510" y="-620" width="120" height="60" as="geometry" />
        </mxCell>
        <mxCell id="9lOi9YtCr-9xyIQbAMfV-49" style="edgeStyle=orthogonalEdgeStyle;rounded=0;orthogonalLoop=1;jettySize=auto;html=1;exitX=0.7;exitY=0.1;exitDx=0;exitDy=0;exitPerimeter=0;entryX=0.439;entryY=0.964;entryDx=0;entryDy=0;entryPerimeter=0;" parent="1" source="9lOi9YtCr-9xyIQbAMfV-34" target="9lOi9YtCr-9xyIQbAMfV-36" edge="1">
          <mxGeometry relative="1" as="geometry" />
        </mxCell>
        <mxCell id="9lOi9YtCr-9xyIQbAMfV-50" style="edgeStyle=orthogonalEdgeStyle;rounded=0;orthogonalLoop=1;jettySize=auto;html=1;exitX=1;exitY=0.5;exitDx=0;exitDy=0;entryX=0.5;entryY=0;entryDx=0;entryDy=0;" parent="1" source="9lOi9YtCr-9xyIQbAMfV-51" target="9lOi9YtCr-9xyIQbAMfV-64" edge="1">
          <mxGeometry relative="1" as="geometry" />
        </mxCell>
        <mxCell id="9lOi9YtCr-9xyIQbAMfV-51" value="ANNOUNCEMENT, NEWS, EVENT" style="shape=parallelogram;perimeter=parallelogramPerimeter;whiteSpace=wrap;html=1;fixedSize=1;" parent="1" vertex="1">
          <mxGeometry x="1750" y="-930" width="135" height="70" as="geometry" />
        </mxCell>
        <mxCell id="9lOi9YtCr-9xyIQbAMfV-52" style="edgeStyle=orthogonalEdgeStyle;rounded=0;orthogonalLoop=1;jettySize=auto;html=1;exitX=1;exitY=0.5;exitDx=0;exitDy=0;entryX=0.5;entryY=0;entryDx=0;entryDy=0;" parent="1" source="9lOi9YtCr-9xyIQbAMfV-53" target="9lOi9YtCr-9xyIQbAMfV-64" edge="1">
          <mxGeometry relative="1" as="geometry" />
        </mxCell>
        <mxCell id="9lOi9YtCr-9xyIQbAMfV-53" value="HISTORY,&amp;nbsp;&lt;div&gt;VISION, MISSION&lt;/div&gt;" style="shape=parallelogram;perimeter=parallelogramPerimeter;whiteSpace=wrap;html=1;fixedSize=1;" parent="1" vertex="1">
          <mxGeometry x="1880" y="-830" width="125" height="70" as="geometry" />
        </mxCell>
        <mxCell id="9lOi9YtCr-9xyIQbAMfV-54" style="edgeStyle=orthogonalEdgeStyle;rounded=0;orthogonalLoop=1;jettySize=auto;html=1;exitX=1;exitY=0.5;exitDx=0;exitDy=0;entryX=0;entryY=0.5;entryDx=0;entryDy=0;" parent="1" edge="1">
          <mxGeometry relative="1" as="geometry">
            <mxPoint x="1875" y="-665.0000000000002" as="sourcePoint" />
            <mxPoint x="2320" y="-655.0000000000002" as="targetPoint" />
            <Array as="points">
              <mxPoint x="2098" y="-664" />
              <mxPoint x="2320" y="-664" />
            </Array>
          </mxGeometry>
        </mxCell>
        <mxCell id="9lOi9YtCr-9xyIQbAMfV-55" value="PROGRAMS, APPLICATION FORMS" style="shape=parallelogram;perimeter=parallelogramPerimeter;whiteSpace=wrap;html=1;fixedSize=1;" parent="1" vertex="1">
          <mxGeometry x="1765" y="-700" width="120" height="60" as="geometry" />
        </mxCell>
        <mxCell id="9lOi9YtCr-9xyIQbAMfV-56" style="edgeStyle=orthogonalEdgeStyle;rounded=0;orthogonalLoop=1;jettySize=auto;html=1;exitX=1;exitY=0.5;exitDx=0;exitDy=0;" parent="1" source="9lOi9YtCr-9xyIQbAMfV-57" edge="1">
          <mxGeometry relative="1" as="geometry">
            <mxPoint x="2420" y="-560" as="targetPoint" />
            <Array as="points">
              <mxPoint x="2420" y="-540" />
            </Array>
          </mxGeometry>
        </mxCell>
        <mxCell id="9lOi9YtCr-9xyIQbAMfV-57" value="LOGIN, TIME&amp;nbsp;&lt;div&gt;TABLE, COURSE MANAGEMENT&lt;/div&gt;" style="shape=parallelogram;perimeter=parallelogramPerimeter;whiteSpace=wrap;html=1;fixedSize=1;" parent="1" vertex="1">
          <mxGeometry x="1882.5" y="-570" width="120" height="60" as="geometry" />
        </mxCell>
        <mxCell id="9lOi9YtCr-9xyIQbAMfV-58" style="edgeStyle=orthogonalEdgeStyle;rounded=0;orthogonalLoop=1;jettySize=auto;html=1;exitX=1;exitY=0.5;exitDx=0;exitDy=0;entryX=0;entryY=0.75;entryDx=0;entryDy=0;" parent="1" source="9lOi9YtCr-9xyIQbAMfV-59" target="9lOi9YtCr-9xyIQbAMfV-64" edge="1">
          <mxGeometry relative="1" as="geometry" />
        </mxCell>
        <mxCell id="9lOi9YtCr-9xyIQbAMfV-59" value="MAP, EMAIL,&amp;nbsp;&lt;div&gt;PHONE&lt;/div&gt;" style="shape=parallelogram;perimeter=parallelogramPerimeter;whiteSpace=wrap;html=1;fixedSize=1;" parent="1" vertex="1">
          <mxGeometry x="2020" y="-650" width="130" height="60" as="geometry" />
        </mxCell>
        <mxCell id="9lOi9YtCr-9xyIQbAMfV-60" style="edgeStyle=orthogonalEdgeStyle;rounded=0;orthogonalLoop=1;jettySize=auto;html=1;exitX=1;exitY=0.5;exitDx=0;exitDy=0;entryX=0.5;entryY=0;entryDx=0;entryDy=0;" parent="1" source="9lOi9YtCr-9xyIQbAMfV-61" target="9lOi9YtCr-9xyIQbAMfV-64" edge="1">
          <mxGeometry relative="1" as="geometry" />
        </mxCell>
        <mxCell id="9lOi9YtCr-9xyIQbAMfV-61" value="DEPARTMENT, FACULTY PROFILE, COURSES" style="shape=parallelogram;perimeter=parallelogramPerimeter;whiteSpace=wrap;html=1;fixedSize=1;" parent="1" vertex="1">
          <mxGeometry x="2020" y="-750" width="140" height="60" as="geometry" />
        </mxCell>
        <mxCell id="9lOi9YtCr-9xyIQbAMfV-62" style="edgeStyle=orthogonalEdgeStyle;rounded=0;orthogonalLoop=1;jettySize=auto;html=1;exitX=1;exitY=0.5;exitDx=0;exitDy=0;entryX=0.5;entryY=1;entryDx=0;entryDy=0;" parent="1" source="9lOi9YtCr-9xyIQbAMfV-63" target="9lOi9YtCr-9xyIQbAMfV-64" edge="1">
          <mxGeometry relative="1" as="geometry" />
        </mxCell>
        <mxCell id="9lOi9YtCr-9xyIQbAMfV-63" value="LOGIN, GRADE, ATTENDENCE, FEES PAYMENT" style="shape=parallelogram;perimeter=parallelogramPerimeter;whiteSpace=wrap;html=1;fixedSize=1;" parent="1" vertex="1">
          <mxGeometry x="1755" y="-490" width="140" height="60" as="geometry" />
        </mxCell>
        <mxCell id="9lOi9YtCr-9xyIQbAMfV-64" value="OUTPUT ACHIEVED" style="swimlane;whiteSpace=wrap;html=1;" parent="1" vertex="1">
          <mxGeometry x="2320" y="-760" width="200" height="200" as="geometry" />
        </mxCell>
        <mxCell id="9lOi9YtCr-9xyIQbAMfV-65" value="1.CLEAN UI AND UX.&lt;div&gt;2.EASY NAVIGATION FOR USERS.&lt;/div&gt;&lt;div&gt;3.PROFESSIONAL LOOK.&lt;/div&gt;&lt;div&gt;4.BEST FIRST IMPRESSION.&lt;/div&gt;&lt;div&gt;5.SEVERAL FEATURES.&lt;/div&gt;" style="text;html=1;align=center;verticalAlign=middle;whiteSpace=wrap;rounded=0;" parent="9lOi9YtCr-9xyIQbAMfV-64" vertex="1">
          <mxGeometry y="30" width="200" height="170" as="geometry" />
        </mxCell>
        <mxCell id="9lOi9YtCr-9xyIQbAMfV-66" style="edgeStyle=orthogonalEdgeStyle;rounded=0;orthogonalLoop=1;jettySize=auto;html=1;exitX=1;exitY=0.5;exitDx=0;exitDy=0;entryX=0.5;entryY=0;entryDx=0;entryDy=0;" parent="1" source="9lOi9YtCr-9xyIQbAMfV-65" target="9lOi9YtCr-9xyIQbAMfV-13" edge="1">
          <mxGeometry relative="1" as="geometry">
            <Array as="points">
              <mxPoint x="2540" y="-645" />
              <mxPoint x="2540" y="-250" />
              <mxPoint x="975" y="-250" />
            </Array>
          </mxGeometry>
        </mxCell>
        <mxCell id="9lOi9YtCr-9xyIQbAMfV-67" style="edgeStyle=orthogonalEdgeStyle;rounded=0;orthogonalLoop=1;jettySize=auto;html=1;entryX=0.5;entryY=1;entryDx=0;entryDy=0;" parent="1" source="9lOi9YtCr-9xyIQbAMfV-69" target="9lOi9YtCr-9xyIQbAMfV-79" edge="1">
          <mxGeometry relative="1" as="geometry">
            <Array as="points">
              <mxPoint x="730" y="-865" />
            </Array>
          </mxGeometry>
        </mxCell>
        <mxCell id="9lOi9YtCr-9xyIQbAMfV-68" style="edgeStyle=orthogonalEdgeStyle;rounded=0;orthogonalLoop=1;jettySize=auto;html=1;exitX=0.5;exitY=0;exitDx=0;exitDy=0;" parent="1" source="9lOi9YtCr-9xyIQbAMfV-69" target="9lOi9YtCr-9xyIQbAMfV-81" edge="1">
          <mxGeometry relative="1" as="geometry" />
        </mxCell>
        <mxCell id="9lOi9YtCr-9xyIQbAMfV-69" value="&#xa;AUTHENTICATION &amp;amp; AUTHORIZATION&#xa;&#xa;" style="rounded=1;whiteSpace=wrap;html=1;" parent="1" vertex="1">
          <mxGeometry x="670" y="-740" width="120" height="60" as="geometry" />
        </mxCell>
        <mxCell id="9lOi9YtCr-9xyIQbAMfV-70" value="&#xa;COURSE REGISTRATION &amp;amp; MANAGEMENT&#xa;&#xa;" style="rounded=1;whiteSpace=wrap;html=1;" parent="1" vertex="1">
          <mxGeometry x="500" y="-740" width="120" height="60" as="geometry" />
        </mxCell>
        <mxCell id="9lOi9YtCr-9xyIQbAMfV-71" value="&#xa;EVENT &amp;amp; NOTICE BOARD MANAGEMENT&#xa;&#xa;" style="rounded=1;whiteSpace=wrap;html=1;" parent="1" vertex="1">
          <mxGeometry x="330" y="-740" width="120" height="60" as="geometry" />
        </mxCell>
        <mxCell id="9lOi9YtCr-9xyIQbAMfV-72" value="&#xa;LIBRARY SYSTEM INTEGRATION&#xa;&#xa;" style="rounded=1;whiteSpace=wrap;html=1;" parent="1" vertex="1">
          <mxGeometry x="330" y="-600" width="120" height="60" as="geometry" />
        </mxCell>
        <mxCell id="9lOi9YtCr-9xyIQbAMfV-73" style="edgeStyle=orthogonalEdgeStyle;rounded=0;orthogonalLoop=1;jettySize=auto;html=1;exitX=1;exitY=0.5;exitDx=0;exitDy=0;" parent="1" source="9lOi9YtCr-9xyIQbAMfV-74" target="9lOi9YtCr-9xyIQbAMfV-83" edge="1">
          <mxGeometry relative="1" as="geometry" />
        </mxCell>
        <mxCell id="9lOi9YtCr-9xyIQbAMfV-74" value="&#xa;PAYMENT GATEWAY INTEGRATION&#xa;&#xa;" style="rounded=1;whiteSpace=wrap;html=1;" parent="1" vertex="1">
          <mxGeometry x="670" y="-600" width="120" height="60" as="geometry" />
        </mxCell>
        <mxCell id="9lOi9YtCr-9xyIQbAMfV-75" value="&#xa;ATTENDANCE &amp;amp; GRADES MANAGEMENT&#xa;&#xa;" style="rounded=1;whiteSpace=wrap;html=1;" parent="1" vertex="1">
          <mxGeometry x="500" y="-600" width="120" height="60" as="geometry" />
        </mxCell>
        <mxCell id="9lOi9YtCr-9xyIQbAMfV-76" style="edgeStyle=orthogonalEdgeStyle;rounded=0;orthogonalLoop=1;jettySize=auto;html=1;exitX=0.5;exitY=0;exitDx=0;exitDy=0;" parent="1" source="9lOi9YtCr-9xyIQbAMfV-77" edge="1">
          <mxGeometry relative="1" as="geometry">
            <mxPoint x="730" y="-1020" as="targetPoint" />
          </mxGeometry>
        </mxCell>
        <mxCell id="9lOi9YtCr-9xyIQbAMfV-77" value="STUDENT" style="shape=parallelogram;perimeter=parallelogramPerimeter;whiteSpace=wrap;html=1;fixedSize=1;" parent="1" vertex="1">
          <mxGeometry x="490" y="-930" width="120" height="60" as="geometry" />
        </mxCell>
        <mxCell id="9lOi9YtCr-9xyIQbAMfV-78" style="edgeStyle=orthogonalEdgeStyle;rounded=0;orthogonalLoop=1;jettySize=auto;html=1;exitX=0.5;exitY=0;exitDx=0;exitDy=0;entryX=0.5;entryY=1;entryDx=0;entryDy=0;" parent="1" source="9lOi9YtCr-9xyIQbAMfV-79" target="9lOi9YtCr-9xyIQbAMfV-116" edge="1">
          <mxGeometry relative="1" as="geometry" />
        </mxCell>
        <mxCell id="9lOi9YtCr-9xyIQbAMfV-79" value="STAFF" style="shape=parallelogram;perimeter=parallelogramPerimeter;whiteSpace=wrap;html=1;fixedSize=1;" parent="1" vertex="1">
          <mxGeometry x="670" y="-930" width="120" height="60" as="geometry" />
        </mxCell>
        <mxCell id="9lOi9YtCr-9xyIQbAMfV-80" style="edgeStyle=orthogonalEdgeStyle;rounded=0;orthogonalLoop=1;jettySize=auto;html=1;exitX=0.5;exitY=0;exitDx=0;exitDy=0;entryX=0.5;entryY=1;entryDx=0;entryDy=0;" parent="1" source="9lOi9YtCr-9xyIQbAMfV-81" target="9lOi9YtCr-9xyIQbAMfV-116" edge="1">
          <mxGeometry relative="1" as="geometry" />
        </mxCell>
        <mxCell id="9lOi9YtCr-9xyIQbAMfV-81" value="ADMIN" style="shape=parallelogram;perimeter=parallelogramPerimeter;whiteSpace=wrap;html=1;fixedSize=1;" parent="1" vertex="1">
          <mxGeometry x="840" y="-930" width="120" height="60" as="geometry" />
        </mxCell>
        <mxCell id="9lOi9YtCr-9xyIQbAMfV-82" style="edgeStyle=orthogonalEdgeStyle;rounded=0;orthogonalLoop=1;jettySize=auto;html=1;exitX=0.5;exitY=0;exitDx=0;exitDy=0;entryX=0.394;entryY=1.005;entryDx=0;entryDy=0;entryPerimeter=0;" parent="1" source="9lOi9YtCr-9xyIQbAMfV-69" target="9lOi9YtCr-9xyIQbAMfV-77" edge="1">
          <mxGeometry relative="1" as="geometry" />
        </mxCell>
        <mxCell id="9lOi9YtCr-9xyIQbAMfV-83" value="FEES" style="shape=parallelogram;perimeter=parallelogramPerimeter;whiteSpace=wrap;html=1;fixedSize=1;" parent="1" vertex="1">
          <mxGeometry x="840" y="-720" width="120" height="60" as="geometry" />
        </mxCell>
        <mxCell id="9lOi9YtCr-9xyIQbAMfV-84" style="edgeStyle=orthogonalEdgeStyle;rounded=0;orthogonalLoop=1;jettySize=auto;html=1;exitX=0;exitY=0.5;exitDx=0;exitDy=0;entryX=0.777;entryY=0.504;entryDx=0;entryDy=0;entryPerimeter=0;" parent="1" source="9lOi9YtCr-9xyIQbAMfV-13" edge="1">
          <mxGeometry relative="1" as="geometry">
            <mxPoint x="867.7000000000003" y="-179.67999999999984" as="targetPoint" />
          </mxGeometry>
        </mxCell>
        <mxCell id="9lOi9YtCr-9xyIQbAMfV-85" style="edgeStyle=orthogonalEdgeStyle;rounded=0;orthogonalLoop=1;jettySize=auto;html=1;exitX=1;exitY=0.5;exitDx=0;exitDy=0;exitPerimeter=0;entryX=0.5;entryY=1;entryDx=0;entryDy=0;" parent="1" source="9lOi9YtCr-9xyIQbAMfV-86" target="9lOi9YtCr-9xyIQbAMfV-75" edge="1">
          <mxGeometry relative="1" as="geometry">
            <Array as="points">
              <mxPoint x="770" y="-180" />
              <mxPoint x="560" y="-180" />
            </Array>
          </mxGeometry>
        </mxCell>
        <mxCell id="9lOi9YtCr-9xyIQbAMfV-86" value="NODE.JS, DJANGO, SRING,&lt;div&gt;MYSQL&lt;/div&gt;" style="shape=or;whiteSpace=wrap;html=1;labelBackgroundColor=none;direction=west;" parent="1" vertex="1">
          <mxGeometry x="770" y="-240" width="110" height="140" as="geometry" />
        </mxCell>
        <mxCell id="9lOi9YtCr-9xyIQbAMfV-87" style="edgeStyle=orthogonalEdgeStyle;rounded=0;orthogonalLoop=1;jettySize=auto;html=1;entryX=0.5;entryY=0;entryDx=0;entryDy=0;" parent="1" source="9lOi9YtCr-9xyIQbAMfV-92" target="9lOi9YtCr-9xyIQbAMfV-94" edge="1">
          <mxGeometry relative="1" as="geometry">
            <Array as="points">
              <mxPoint x="1170" y="-210" />
              <mxPoint x="1380" y="-210" />
            </Array>
          </mxGeometry>
        </mxCell>
        <mxCell id="9lOi9YtCr-9xyIQbAMfV-88" style="edgeStyle=orthogonalEdgeStyle;rounded=0;orthogonalLoop=1;jettySize=auto;html=1;entryX=0.5;entryY=0;entryDx=0;entryDy=0;" parent="1" source="9lOi9YtCr-9xyIQbAMfV-92" target="9lOi9YtCr-9xyIQbAMfV-100" edge="1">
          <mxGeometry relative="1" as="geometry">
            <Array as="points">
              <mxPoint x="1170" y="-210" />
              <mxPoint x="2020" y="-210" />
            </Array>
          </mxGeometry>
        </mxCell>
        <mxCell id="9lOi9YtCr-9xyIQbAMfV-89" style="edgeStyle=orthogonalEdgeStyle;rounded=0;orthogonalLoop=1;jettySize=auto;html=1;entryX=0.5;entryY=0;entryDx=0;entryDy=0;" parent="1" source="9lOi9YtCr-9xyIQbAMfV-92" target="9lOi9YtCr-9xyIQbAMfV-96" edge="1">
          <mxGeometry relative="1" as="geometry">
            <Array as="points">
              <mxPoint x="1170" y="-210" />
              <mxPoint x="1540" y="-210" />
            </Array>
          </mxGeometry>
        </mxCell>
        <mxCell id="9lOi9YtCr-9xyIQbAMfV-90" style="edgeStyle=orthogonalEdgeStyle;rounded=0;orthogonalLoop=1;jettySize=auto;html=1;entryX=0.5;entryY=0;entryDx=0;entryDy=0;" parent="1" source="9lOi9YtCr-9xyIQbAMfV-92" target="9lOi9YtCr-9xyIQbAMfV-98" edge="1">
          <mxGeometry relative="1" as="geometry">
            <Array as="points">
              <mxPoint x="1170" y="-210" />
              <mxPoint x="1705" y="-210" />
            </Array>
          </mxGeometry>
        </mxCell>
        <mxCell id="9lOi9YtCr-9xyIQbAMfV-91" style="edgeStyle=orthogonalEdgeStyle;rounded=0;orthogonalLoop=1;jettySize=auto;html=1;entryX=0.5;entryY=0;entryDx=0;entryDy=0;" parent="1" source="9lOi9YtCr-9xyIQbAMfV-92" target="9lOi9YtCr-9xyIQbAMfV-99" edge="1">
          <mxGeometry relative="1" as="geometry">
            <Array as="points">
              <mxPoint x="1170" y="-210" />
              <mxPoint x="1860" y="-210" />
            </Array>
          </mxGeometry>
        </mxCell>
        <mxCell id="9lOi9YtCr-9xyIQbAMfV-92" value="&#xa;MySQL, PostgreSQL, MongoDB&#xa;&#xa;" style="shape=or;whiteSpace=wrap;html=1;" parent="1" vertex="1">
          <mxGeometry x="1130" y="-120" width="80" height="130" as="geometry" />
        </mxCell>
        <mxCell id="9lOi9YtCr-9xyIQbAMfV-93" style="edgeStyle=orthogonalEdgeStyle;rounded=0;orthogonalLoop=1;jettySize=auto;html=1;" parent="1" source="9lOi9YtCr-9xyIQbAMfV-94" target="9lOi9YtCr-9xyIQbAMfV-102" edge="1">
          <mxGeometry relative="1" as="geometry">
            <mxPoint x="1380" y="-50" as="targetPoint" />
          </mxGeometry>
        </mxCell>
        <mxCell id="9lOi9YtCr-9xyIQbAMfV-94" value="STUDENT RECORDS" style="rounded=1;whiteSpace=wrap;html=1;" parent="1" vertex="1">
          <mxGeometry x="1320" y="-190" width="120" height="60" as="geometry" />
        </mxCell>
        <mxCell id="9lOi9YtCr-9xyIQbAMfV-95" style="edgeStyle=orthogonalEdgeStyle;rounded=0;orthogonalLoop=1;jettySize=auto;html=1;entryX=0.5;entryY=0;entryDx=0;entryDy=0;" parent="1" source="9lOi9YtCr-9xyIQbAMfV-96" target="9lOi9YtCr-9xyIQbAMfV-110" edge="1">
          <mxGeometry relative="1" as="geometry" />
        </mxCell>
        <mxCell id="9lOi9YtCr-9xyIQbAMfV-96" value="&#xa;FACULTY RECORDS&#xa;&#xa;" style="rounded=1;whiteSpace=wrap;html=1;" parent="1" vertex="1">
          <mxGeometry x="1480" y="-190" width="120" height="60" as="geometry" />
        </mxCell>
        <mxCell id="9lOi9YtCr-9xyIQbAMfV-97" style="edgeStyle=orthogonalEdgeStyle;rounded=0;orthogonalLoop=1;jettySize=auto;html=1;entryX=0.5;entryY=0;entryDx=0;entryDy=0;" parent="1" source="9lOi9YtCr-9xyIQbAMfV-98" target="9lOi9YtCr-9xyIQbAMfV-108" edge="1">
          <mxGeometry relative="1" as="geometry">
            <Array as="points">
              <mxPoint x="1705" y="-20" />
            </Array>
          </mxGeometry>
        </mxCell>
        <mxCell id="9lOi9YtCr-9xyIQbAMfV-98" value="&#xa;COURSE DETAILS&#xa;&#xa;" style="rounded=1;whiteSpace=wrap;html=1;" parent="1" vertex="1">
          <mxGeometry x="1645" y="-190" width="120" height="60" as="geometry" />
        </mxCell>
        <mxCell id="9lOi9YtCr-9xyIQbAMfV-99" value="&#xa;LIBRARY DATABASE&#xa;&#xa;" style="rounded=1;whiteSpace=wrap;html=1;" parent="1" vertex="1">
          <mxGeometry x="1800" y="-190" width="120" height="60" as="geometry" />
        </mxCell>
        <mxCell id="9lOi9YtCr-9xyIQbAMfV-100" value="&#xa;FINANCIAL RECORDS&#xa;&#xa;" style="rounded=1;whiteSpace=wrap;html=1;" parent="1" vertex="1">
          <mxGeometry x="1960" y="-190" width="120" height="60" as="geometry" />
        </mxCell>
        <mxCell id="9lOi9YtCr-9xyIQbAMfV-101" style="edgeStyle=orthogonalEdgeStyle;rounded=0;orthogonalLoop=1;jettySize=auto;html=1;entryX=0.5;entryY=0;entryDx=0;entryDy=0;" parent="1" source="9lOi9YtCr-9xyIQbAMfV-102" target="9lOi9YtCr-9xyIQbAMfV-113" edge="1">
          <mxGeometry relative="1" as="geometry">
            <Array as="points">
              <mxPoint x="1380" y="70" />
              <mxPoint x="1710" y="70" />
              <mxPoint x="1710" y="120" />
            </Array>
          </mxGeometry>
        </mxCell>
        <mxCell id="9lOi9YtCr-9xyIQbAMfV-102" value="&lt;br&gt;PROFILES,&amp;nbsp;&lt;div&gt;MARKS, ATTENDANCE&lt;br&gt;&lt;br&gt;&lt;/div&gt;" style="shape=parallelogram;perimeter=parallelogramPerimeter;whiteSpace=wrap;html=1;fixedSize=1;" parent="1" vertex="1">
          <mxGeometry x="1320" y="-20" width="120" height="60" as="geometry" />
        </mxCell>
        <mxCell id="9lOi9YtCr-9xyIQbAMfV-103" style="edgeStyle=orthogonalEdgeStyle;rounded=0;orthogonalLoop=1;jettySize=auto;html=1;entryX=0.5;entryY=0;entryDx=0;entryDy=0;" parent="1" source="9lOi9YtCr-9xyIQbAMfV-104" target="9lOi9YtCr-9xyIQbAMfV-113" edge="1">
          <mxGeometry relative="1" as="geometry">
            <Array as="points">
              <mxPoint x="2030" y="70" />
              <mxPoint x="1710" y="70" />
              <mxPoint x="1710" y="120" />
            </Array>
          </mxGeometry>
        </mxCell>
        <mxCell id="9lOi9YtCr-9xyIQbAMfV-104" value="&#xa;FEE TRANSACTIONS&#xa;&#xa;" style="shape=parallelogram;perimeter=parallelogramPerimeter;whiteSpace=wrap;html=1;fixedSize=1;" parent="1" vertex="1">
          <mxGeometry x="1970" y="-20" width="120" height="60" as="geometry" />
        </mxCell>
        <mxCell id="9lOi9YtCr-9xyIQbAMfV-105" style="edgeStyle=orthogonalEdgeStyle;rounded=0;orthogonalLoop=1;jettySize=auto;html=1;entryX=0.5;entryY=0;entryDx=0;entryDy=0;" parent="1" source="9lOi9YtCr-9xyIQbAMfV-106" target="9lOi9YtCr-9xyIQbAMfV-113" edge="1">
          <mxGeometry relative="1" as="geometry">
            <Array as="points">
              <mxPoint x="1870" y="70" />
              <mxPoint x="1709" y="70" />
            </Array>
          </mxGeometry>
        </mxCell>
        <mxCell id="9lOi9YtCr-9xyIQbAMfV-106" value="&lt;br&gt;BOOKS, ISSUE RECORDS&lt;div&gt;&lt;br/&gt;&lt;/div&gt;" style="shape=parallelogram;perimeter=parallelogramPerimeter;whiteSpace=wrap;html=1;fixedSize=1;" parent="1" vertex="1">
          <mxGeometry x="1810" y="-20" width="120" height="60" as="geometry" />
        </mxCell>
        <mxCell id="9lOi9YtCr-9xyIQbAMfV-107" style="edgeStyle=orthogonalEdgeStyle;rounded=0;orthogonalLoop=1;jettySize=auto;html=1;entryX=0.5;entryY=0;entryDx=0;entryDy=0;" parent="1" source="9lOi9YtCr-9xyIQbAMfV-108" target="9lOi9YtCr-9xyIQbAMfV-113" edge="1">
          <mxGeometry relative="1" as="geometry" />
        </mxCell>
        <mxCell id="9lOi9YtCr-9xyIQbAMfV-108" value="&lt;br&gt;SUBJECTS, CREDITS, SYLLABUS&lt;div&gt;&lt;br/&gt;&lt;/div&gt;" style="shape=parallelogram;perimeter=parallelogramPerimeter;whiteSpace=wrap;html=1;fixedSize=1;" parent="1" vertex="1">
          <mxGeometry x="1649" y="-20" width="120" height="60" as="geometry" />
        </mxCell>
        <mxCell id="9lOi9YtCr-9xyIQbAMfV-109" style="edgeStyle=orthogonalEdgeStyle;rounded=0;orthogonalLoop=1;jettySize=auto;html=1;entryX=0.5;entryY=0;entryDx=0;entryDy=0;" parent="1" source="9lOi9YtCr-9xyIQbAMfV-110" target="9lOi9YtCr-9xyIQbAMfV-113" edge="1">
          <mxGeometry relative="1" as="geometry">
            <Array as="points">
              <mxPoint x="1540" y="70" />
              <mxPoint x="1709" y="70" />
            </Array>
          </mxGeometry>
        </mxCell>
        <mxCell id="9lOi9YtCr-9xyIQbAMfV-110" value="&lt;br&gt;COURSES&lt;div&gt;, SALARY, TIMETABLES&lt;br&gt;&lt;br&gt;&lt;/div&gt;" style="shape=parallelogram;perimeter=parallelogramPerimeter;whiteSpace=wrap;html=1;fixedSize=1;" parent="1" vertex="1">
          <mxGeometry x="1475" y="-20" width="130" height="60" as="geometry" />
        </mxCell>
        <mxCell id="9lOi9YtCr-9xyIQbAMfV-111" style="edgeStyle=orthogonalEdgeStyle;rounded=0;orthogonalLoop=1;jettySize=auto;html=1;entryX=0.425;entryY=0.033;entryDx=0;entryDy=0;entryPerimeter=0;" parent="1" source="9lOi9YtCr-9xyIQbAMfV-99" target="9lOi9YtCr-9xyIQbAMfV-106" edge="1">
          <mxGeometry relative="1" as="geometry" />
        </mxCell>
        <mxCell id="9lOi9YtCr-9xyIQbAMfV-112" style="edgeStyle=orthogonalEdgeStyle;rounded=0;orthogonalLoop=1;jettySize=auto;html=1;entryX=0.425;entryY=0.017;entryDx=0;entryDy=0;entryPerimeter=0;" parent="1" source="9lOi9YtCr-9xyIQbAMfV-100" target="9lOi9YtCr-9xyIQbAMfV-104" edge="1">
          <mxGeometry relative="1" as="geometry" />
        </mxCell>
        <mxCell id="9lOi9YtCr-9xyIQbAMfV-113" value="&amp;nbsp;&amp;nbsp;&lt;div&gt;&lt;br&gt;&lt;/div&gt;&lt;div&gt;&lt;br&gt;&lt;/div&gt;&lt;div&gt;&lt;br&gt;&lt;/div&gt;&lt;div&gt;&lt;br&gt;&lt;/div&gt;&lt;div&gt;&lt;br&gt;&lt;/div&gt;&lt;div&gt;&lt;br&gt;&lt;/div&gt;&lt;div&gt;&lt;br&gt;&lt;/div&gt;&lt;div&gt;&lt;br&gt;&lt;/div&gt;&lt;div&gt;&lt;br&gt;&lt;/div&gt;&lt;div&gt;&lt;br&gt;&lt;/div&gt;&lt;div&gt;&lt;br&gt;&lt;li data-end=&quot;136&quot; data-start=&quot;102&quot;&gt;&lt;p data-end=&quot;136&quot; data-start=&quot;104&quot;&gt;CENTRALIZED STORAGE OF RECORDS&lt;/p&gt;&lt;/li&gt;&lt;li data-end=&quot;172&quot; data-start=&quot;137&quot;&gt;&lt;p data-end=&quot;172&quot; data-start=&quot;139&quot;&gt;QUICK AND SECURE DATA RETRIEVAL&lt;/p&gt;&lt;/li&gt;&lt;li data-end=&quot;207&quot; data-start=&quot;173&quot;&gt;&lt;p data-end=&quot;207&quot; data-start=&quot;175&quot;&gt;DATA INTEGRITY AND CONSISTENCY&lt;/p&gt;&lt;/li&gt;&lt;li data-end=&quot;241&quot; data-start=&quot;208&quot;&gt;&lt;p data-end=&quot;241&quot; data-start=&quot;210&quot;&gt;SUPPORT FOR REPORT GENERATION&lt;/p&gt;&lt;/li&gt;&lt;li data-end=&quot;273&quot; data-start=&quot;242&quot;&gt;&lt;p data-end=&quot;273&quot; data-start=&quot;244&quot;&gt;BACKUP AND RECOVERY OPTIONS&lt;/p&gt;&lt;/li&gt;&lt;/div&gt;" style="swimlane;whiteSpace=wrap;html=1;" parent="1" vertex="1">
          <mxGeometry x="1574" y="120" width="270" height="200" as="geometry" />
        </mxCell>
        <mxCell id="9lOi9YtCr-9xyIQbAMfV-114" value="OUTPUT ACHIEVED" style="text;html=1;align=center;verticalAlign=middle;whiteSpace=wrap;rounded=0;" parent="9lOi9YtCr-9xyIQbAMfV-113" vertex="1">
          <mxGeometry x="50" width="170" height="30" as="geometry" />
        </mxCell>
        <mxCell id="9lOi9YtCr-9xyIQbAMfV-115" value="OUTPUT ACHIEVED" style="swimlane;whiteSpace=wrap;html=1;" parent="1" vertex="1">
          <mxGeometry x="605" y="-1220" width="250" height="200" as="geometry" />
        </mxCell>
        <mxCell id="9lOi9YtCr-9xyIQbAMfV-116" value="&lt;p data-end=&quot;140&quot; data-start=&quot;81&quot;&gt;HANDLES BUSINESS LOGIC AND CONNECTS FRONTEND TO DATABASE.&lt;/p&gt;&lt;p data-end=&quot;140&quot; data-start=&quot;81&quot;&gt;&lt;span style=&quot;background-color: transparent; color: light-dark(rgb(0, 0, 0), rgb(255, 255, 255));&quot;&gt;1.AUTHENTICATION&lt;/span&gt;&lt;span style=&quot;background-color: transparent; color: light-dark(rgb(0, 0, 0), rgb(255, 255, 255));&quot;&gt;&amp;nbsp;&amp;amp;AUTHORIZATION&amp;nbsp;&amp;nbsp;&lt;/span&gt;&lt;/p&gt;&lt;p data-end=&quot;140&quot; data-start=&quot;81&quot;&gt;&lt;span style=&quot;background-color: transparent; color: light-dark(rgb(0, 0, 0), rgb(255, 255, 255));&quot;&gt;2.COURSE &amp;amp; EVENTMANAGEMENT&lt;/span&gt;&lt;/p&gt;&lt;p data-end=&quot;140&quot; data-start=&quot;81&quot;&gt;&lt;span style=&quot;background-color: transparent; color: light-dark(rgb(0, 0, 0), rgb(255, 255, 255));&quot;&gt;&amp;nbsp; &amp;nbsp; &amp;nbsp;&lt;/span&gt;&lt;span style=&quot;background-color: transparent; color: light-dark(rgb(0, 0, 0), rgb(255, 255, 255));&quot;&gt;3.LIBRARY,ATTENDANCE,GRADES&amp;nbsp;&lt;/span&gt;&lt;/p&gt;&lt;p data-end=&quot;140&quot; data-start=&quot;81&quot;&gt;&lt;span style=&quot;background-color: transparent; color: light-dark(rgb(0, 0, 0), rgb(255, 255, 255));&quot;&gt;&amp;nbsp;&amp;nbsp;&lt;/span&gt;&lt;span style=&quot;background-color: transparent; color: light-dark(rgb(0, 0, 0), rgb(255, 255, 255));&quot;&gt;4.PAYMENT INTEGRATION&lt;/span&gt;&lt;/p&gt;" style="text;html=1;align=center;verticalAlign=middle;whiteSpace=wrap;rounded=0;" parent="9lOi9YtCr-9xyIQbAMfV-115" vertex="1">
          <mxGeometry y="30" width="250" height="170" as="geometry" />
        </mxCell>
        <mxCell id="9lOi9YtCr-9xyIQbAMfV-117" value="&#xa;HTTPS WITH SSL CERTIFICATES&#xa;&#xa;" style="rounded=1;whiteSpace=wrap;html=1;" parent="1" vertex="1">
          <mxGeometry x="460" width="120" height="60" as="geometry" />
        </mxCell>
        <mxCell id="9lOi9YtCr-9xyIQbAMfV-118" value="&#xa;REGULAR BACKUPS&#xa;&#xa;" style="rounded=1;whiteSpace=wrap;html=1;" parent="1" vertex="1">
          <mxGeometry x="460" y="220" width="120" height="60" as="geometry" />
        </mxCell>
        <mxCell id="9lOi9YtCr-9xyIQbAMfV-119" value="&#xa;FIREWALLS &amp;amp; DDOS PROTECTION&#xa;&#xa;" style="rounded=1;whiteSpace=wrap;html=1;" parent="1" vertex="1">
          <mxGeometry x="610" y="110" width="120" height="60" as="geometry" />
        </mxCell>
        <mxCell id="9lOi9YtCr-9xyIQbAMfV-120" style="edgeStyle=orthogonalEdgeStyle;rounded=0;orthogonalLoop=1;jettySize=auto;html=1;exitX=0;exitY=0.5;exitDx=0;exitDy=0;entryX=1;entryY=0.5;entryDx=0;entryDy=0;" parent="1" source="9lOi9YtCr-9xyIQbAMfV-123" target="9lOi9YtCr-9xyIQbAMfV-126" edge="1">
          <mxGeometry relative="1" as="geometry">
            <Array as="points">
              <mxPoint x="250" y="140" />
              <mxPoint x="250" y="160" />
            </Array>
          </mxGeometry>
        </mxCell>
        <mxCell id="9lOi9YtCr-9xyIQbAMfV-121" style="edgeStyle=orthogonalEdgeStyle;rounded=0;orthogonalLoop=1;jettySize=auto;html=1;exitX=0;exitY=0.5;exitDx=0;exitDy=0;entryX=1;entryY=0.5;entryDx=0;entryDy=0;" parent="1" source="9lOi9YtCr-9xyIQbAMfV-123" target="9lOi9YtCr-9xyIQbAMfV-125" edge="1">
          <mxGeometry relative="1" as="geometry">
            <Array as="points">
              <mxPoint x="250" y="140" />
              <mxPoint x="250" y="40" />
            </Array>
          </mxGeometry>
        </mxCell>
        <mxCell id="9lOi9YtCr-9xyIQbAMfV-122" style="edgeStyle=orthogonalEdgeStyle;rounded=0;orthogonalLoop=1;jettySize=auto;html=1;exitX=0.25;exitY=0;exitDx=0;exitDy=0;entryX=0.5;entryY=0;entryDx=0;entryDy=0;" parent="1" source="9lOi9YtCr-9xyIQbAMfV-123" target="9lOi9YtCr-9xyIQbAMfV-124" edge="1">
          <mxGeometry relative="1" as="geometry">
            <Array as="points">
              <mxPoint x="335" />
              <mxPoint x="-10" />
            </Array>
          </mxGeometry>
        </mxCell>
        <mxCell id="9lOi9YtCr-9xyIQbAMfV-123" value="&#xa;ROLE-BASED ACCESS CONTROL&#xa;&#xa;" style="rounded=1;whiteSpace=wrap;html=1;" parent="1" vertex="1">
          <mxGeometry x="305" y="110" width="120" height="60" as="geometry" />
        </mxCell>
        <mxCell id="9lOi9YtCr-9xyIQbAMfV-124" value="&#xa;FACULTY&#xa;&#xa;" style="shape=parallelogram;perimeter=parallelogramPerimeter;whiteSpace=wrap;html=1;fixedSize=1;" parent="1" vertex="1">
          <mxGeometry x="-70" y="70" width="120" height="60" as="geometry" />
        </mxCell>
        <mxCell id="9lOi9YtCr-9xyIQbAMfV-125" value="&#xa;ADMIN&#xa;&#xa;" style="shape=parallelogram;perimeter=parallelogramPerimeter;whiteSpace=wrap;html=1;fixedSize=1;" parent="1" vertex="1">
          <mxGeometry x="110" y="10" width="120" height="60" as="geometry" />
        </mxCell>
        <mxCell id="9lOi9YtCr-9xyIQbAMfV-126" value="&#xa; STUDENT&#xa;&#xa;" style="shape=parallelogram;perimeter=parallelogramPerimeter;whiteSpace=wrap;html=1;fixedSize=1;" parent="1" vertex="1">
          <mxGeometry x="70" y="130" width="120" height="60" as="geometry" />
        </mxCell>
        <mxCell id="9lOi9YtCr-9xyIQbAMfV-127" value="&#xa;GUEST&#xa;&#xa;" style="shape=parallelogram;perimeter=parallelogramPerimeter;whiteSpace=wrap;html=1;fixedSize=1;" parent="1" vertex="1">
          <mxGeometry x="-110" y="190" width="120" height="60" as="geometry" />
        </mxCell>
        <mxCell id="9lOi9YtCr-9xyIQbAMfV-128" style="edgeStyle=orthogonalEdgeStyle;rounded=0;orthogonalLoop=1;jettySize=auto;html=1;exitX=0.5;exitY=1;exitDx=0;exitDy=0;entryX=0.921;entryY=0.605;entryDx=0;entryDy=0;entryPerimeter=0;" parent="1" source="9lOi9YtCr-9xyIQbAMfV-123" target="9lOi9YtCr-9xyIQbAMfV-127" edge="1">
          <mxGeometry relative="1" as="geometry">
            <Array as="points">
              <mxPoint x="365" y="226" />
            </Array>
          </mxGeometry>
        </mxCell>
        <mxCell id="9lOi9YtCr-9xyIQbAMfV-129" value="OUTPUT ACHIEVED" style="swimlane;whiteSpace=wrap;html=1;" parent="1" vertex="1">
          <mxGeometry x="-530" y="20" width="250" height="200" as="geometry" />
        </mxCell>
        <mxCell id="9lOi9YtCr-9xyIQbAMfV-130" value="&lt;p data-end=&quot;104&quot; data-start=&quot;66&quot;&gt;PROTECTS DATA AND ENSURES SAFE ACCESS.&lt;/p&gt;&lt;ul data-is-only-node=&quot;&quot; data-is-last-node=&quot;&quot; data-end=&quot;247&quot; data-start=&quot;106&quot;&gt;&lt;li data-end=&quot;135&quot; data-start=&quot;106&quot;&gt;&lt;p data-end=&quot;135&quot; data-start=&quot;108&quot;&gt;HTTPS WITH SSL CERTIFICATES&lt;/p&gt;&lt;/li&gt;&lt;li data-end=&quot;197&quot; data-start=&quot;137&quot;&gt;&lt;p data-end=&quot;197&quot; data-start=&quot;139&quot;&gt;ROLE-BASED ACCESS CONTROL (ADMIN, FACULTY, STUDENT, GUEST)&lt;/p&gt;&lt;/li&gt;&lt;li data-end=&quot;228&quot; data-start=&quot;199&quot;&gt;&lt;p data-end=&quot;228&quot; data-start=&quot;201&quot;&gt;FIREWALLS &amp;amp; DDOS PROTECTION&lt;/p&gt;&lt;/li&gt;&lt;li data-is-last-node=&quot;&quot; data-end=&quot;247&quot; data-start=&quot;230&quot;&gt;&lt;p data-is-last-node=&quot;&quot; data-end=&quot;247&quot; data-start=&quot;232&quot;&gt;REGULAR BACKUPS&lt;/p&gt;&lt;/li&gt;&lt;/ul&gt;" style="text;html=1;align=center;verticalAlign=middle;whiteSpace=wrap;rounded=0;" parent="9lOi9YtCr-9xyIQbAMfV-129" vertex="1">
          <mxGeometry x="-10" y="30" width="250" height="170" as="geometry" />
        </mxCell>
        <mxCell id="9lOi9YtCr-9xyIQbAMfV-131" value="" style="html=1;shadow=0;dashed=0;align=center;verticalAlign=middle;shape=mxgraph.arrows2.arrow;dy=0.6;dx=40;flipH=1;notch=0;" parent="1" vertex="1">
          <mxGeometry x="-280" y="85" width="170" height="70" as="geometry" />
        </mxCell>
        <mxCell id="9lOi9YtCr-9xyIQbAMfV-150" style="edgeStyle=orthogonalEdgeStyle;rounded=0;orthogonalLoop=1;jettySize=auto;html=1;entryX=0.5;entryY=1;entryDx=0;entryDy=0;" parent="1" source="9lOi9YtCr-9xyIQbAMfV-134" target="9lOi9YtCr-9xyIQbAMfV-136" edge="1">
          <mxGeometry relative="1" as="geometry" />
        </mxCell>
        <mxCell id="9lOi9YtCr-9xyIQbAMfV-134" value="CLOUD/&lt;div&gt;SERVER + CI/CD&lt;/div&gt;" style="shape=or;whiteSpace=wrap;html=1;" parent="1" vertex="1">
          <mxGeometry x="1130" y="225" width="70" height="90" as="geometry" />
        </mxCell>
        <mxCell id="9lOi9YtCr-9xyIQbAMfV-137" style="edgeStyle=orthogonalEdgeStyle;rounded=0;orthogonalLoop=1;jettySize=auto;html=1;" parent="1" source="9lOi9YtCr-9xyIQbAMfV-136" target="9lOi9YtCr-9xyIQbAMfV-138" edge="1">
          <mxGeometry relative="1" as="geometry">
            <mxPoint x="1270" y="125" as="targetPoint" />
          </mxGeometry>
        </mxCell>
        <mxCell id="9lOi9YtCr-9xyIQbAMfV-136" value="&#xa;HOST ON CLOUD OR ON-CAMPUS SERVERS.&#xa;&#xa;" style="rounded=1;whiteSpace=wrap;html=1;" parent="1" vertex="1">
          <mxGeometry x="1105" y="95" width="120" height="60" as="geometry" />
        </mxCell>
        <mxCell id="9lOi9YtCr-9xyIQbAMfV-139" style="edgeStyle=orthogonalEdgeStyle;rounded=0;orthogonalLoop=1;jettySize=auto;html=1;" parent="1" source="9lOi9YtCr-9xyIQbAMfV-138" target="9lOi9YtCr-9xyIQbAMfV-140" edge="1">
          <mxGeometry relative="1" as="geometry">
            <mxPoint x="1350" y="250" as="targetPoint" />
          </mxGeometry>
        </mxCell>
        <mxCell id="9lOi9YtCr-9xyIQbAMfV-138" value="&lt;br&gt;&lt;li data-end=&quot;891&quot; data-start=&quot;856&quot;&gt;&lt;p data-end=&quot;891&quot; data-start=&quot;858&quot;&gt;CONFIGURE DOMAIN (COLLEGE.EDU)&lt;/p&gt;&lt;/li&gt;" style="rounded=1;whiteSpace=wrap;html=1;" parent="1" vertex="1">
          <mxGeometry x="1290" y="95" width="120" height="60" as="geometry" />
        </mxCell>
        <mxCell id="9lOi9YtCr-9xyIQbAMfV-141" style="edgeStyle=orthogonalEdgeStyle;rounded=0;orthogonalLoop=1;jettySize=auto;html=1;" parent="1" source="9lOi9YtCr-9xyIQbAMfV-140" target="9lOi9YtCr-9xyIQbAMfV-142" edge="1">
          <mxGeometry relative="1" as="geometry">
            <mxPoint x="1350" y="410" as="targetPoint" />
          </mxGeometry>
        </mxCell>
        <mxCell id="9lOi9YtCr-9xyIQbAMfV-140" value="&#xa;CI/CD PIPELINES (GITHUB ACTIONS, JENKINS)&#xa;&#xa;" style="rounded=1;whiteSpace=wrap;html=1;" parent="1" vertex="1">
          <mxGeometry x="1290" y="240" width="120" height="60" as="geometry" />
        </mxCell>
        <mxCell id="9lOi9YtCr-9xyIQbAMfV-143" style="edgeStyle=orthogonalEdgeStyle;rounded=0;orthogonalLoop=1;jettySize=auto;html=1;" parent="1" source="9lOi9YtCr-9xyIQbAMfV-142" edge="1">
          <mxGeometry relative="1" as="geometry">
            <mxPoint x="1350" y="490" as="targetPoint" />
          </mxGeometry>
        </mxCell>
        <mxCell id="9lOi9YtCr-9xyIQbAMfV-142" value="&#xa;BACKUP &amp;amp; RECOVERY SETUP&#xa;&#xa;" style="rounded=1;whiteSpace=wrap;html=1;" parent="1" vertex="1">
          <mxGeometry x="1290" y="380" width="120" height="60" as="geometry" />
        </mxCell>
        <mxCell id="9lOi9YtCr-9xyIQbAMfV-144" value="DEPLOYED" style="ellipse;whiteSpace=wrap;html=1;" parent="1" vertex="1">
          <mxGeometry x="1290" y="490" width="120" height="80" as="geometry" />
        </mxCell>
        <mxCell id="9lOi9YtCr-9xyIQbAMfV-148" style="edgeStyle=orthogonalEdgeStyle;rounded=0;orthogonalLoop=1;jettySize=auto;html=1;entryX=1;entryY=0.5;entryDx=0;entryDy=0;" parent="1" source="9lOi9YtCr-9xyIQbAMfV-147" target="9lOi9YtCr-9xyIQbAMfV-144" edge="1">
          <mxGeometry relative="1" as="geometry" />
        </mxCell>
        <mxCell id="9lOi9YtCr-9xyIQbAMfV-147" value="OUTPUT ACHIEVED" style="swimlane;whiteSpace=wrap;html=1;" parent="1" vertex="1">
          <mxGeometry x="1510" y="422.5" width="340" height="215" as="geometry" />
        </mxCell>
        <mxCell id="9lOi9YtCr-9xyIQbAMfV-149" value="&lt;br&gt;&lt;li data-end=&quot;151&quot; data-start=&quot;111&quot;&gt;&lt;p data-end=&quot;151&quot; data-start=&quot;113&quot;&gt;WEBSITE LIVE AND ACCESSIBLE TO USERS&lt;/p&gt;&lt;/li&gt;&lt;li data-end=&quot;189&quot; data-start=&quot;152&quot;&gt;&lt;p data-end=&quot;189&quot; data-start=&quot;154&quot;&gt;STABLE HOSTING WITH SECURE DOMAIN&lt;/p&gt;&lt;/li&gt;&lt;li data-end=&quot;226&quot; data-start=&quot;190&quot;&gt;&lt;p data-end=&quot;226&quot; data-start=&quot;192&quot;&gt;AUTOMATED CI/CD FOR EASY UPDATES&lt;/p&gt;&lt;/li&gt;&lt;li data-end=&quot;259&quot; data-start=&quot;227&quot;&gt;&lt;p data-end=&quot;259&quot; data-start=&quot;229&quot;&gt;BACKUP AND RECOVERY IN PLACE&lt;/p&gt;&lt;/li&gt;&lt;li data-end=&quot;300&quot; data-start=&quot;260&quot;&gt;&lt;p data-end=&quot;300&quot; data-start=&quot;262&quot;&gt;MONITORING OF SERVER AND PERFORMANCE&lt;/p&gt;&lt;/li&gt;" style="text;html=1;align=center;verticalAlign=middle;whiteSpace=wrap;rounded=0;" parent="9lOi9YtCr-9xyIQbAMfV-147" vertex="1">
          <mxGeometry x="20" y="20" width="320" height="190" as="geometry" />
        </mxCell>
        <mxCell id="9lOi9YtCr-9xyIQbAMfV-158" style="edgeStyle=orthogonalEdgeStyle;rounded=0;orthogonalLoop=1;jettySize=auto;html=1;" parent="1" source="9lOi9YtCr-9xyIQbAMfV-157" edge="1">
          <mxGeometry relative="1" as="geometry">
            <mxPoint x="620" y="420" as="targetPoint" />
          </mxGeometry>
        </mxCell>
        <mxCell id="9lOi9YtCr-9xyIQbAMfV-157" value="&#xa;FIX BUGS, SECURITY PATCHES, NEW FEATURES.&#xa;&#xa;" style="rounded=1;whiteSpace=wrap;html=1;" parent="1" vertex="1">
          <mxGeometry x="730" y="370" width="120" height="100" as="geometry" />
        </mxCell>
        <mxCell id="9lOi9YtCr-9xyIQbAMfV-159" value="OUTPUT ACHIEVED" style="swimlane;whiteSpace=wrap;html=1;" parent="1" vertex="1">
          <mxGeometry x="280" y="330" width="340" height="240" as="geometry" />
        </mxCell>
        <mxCell id="9lOi9YtCr-9xyIQbAMfV-160" value="&lt;li data-end=&quot;170&quot; data-start=&quot;127&quot;&gt;&lt;p data-end=&quot;170&quot; data-start=&quot;129&quot;&gt;BUGS FIXED AND SECURITY PATCHES APPLIED&lt;/p&gt;&lt;/li&gt;&lt;li data-end=&quot;210&quot; data-start=&quot;171&quot;&gt;&lt;p data-end=&quot;210&quot; data-start=&quot;173&quot;&gt;NEW FEATURES AND IMPROVEMENTS ADDED&lt;/p&gt;&lt;/li&gt;&lt;li data-end=&quot;248&quot; data-start=&quot;211&quot;&gt;&lt;p data-end=&quot;248&quot; data-start=&quot;213&quot;&gt;SYSTEM RUNS SMOOTHLY AND RELIABLY&lt;/p&gt;&lt;/li&gt;" style="text;html=1;align=center;verticalAlign=middle;whiteSpace=wrap;rounded=0;" parent="9lOi9YtCr-9xyIQbAMfV-159" vertex="1">
          <mxGeometry x="10" y="30" width="320" height="190" as="geometry" />
        </mxCell>
        <mxCell id="nHpbPdlaQZGM8pQ5wMOM-1" value="&lt;span style=&quot;font-size: 21px;&quot;&gt;STOP&lt;/span&gt;" style="strokeWidth=2;html=1;shape=mxgraph.flowchart.terminator;whiteSpace=wrap;labelBackgroundColor=none;" vertex="1" parent="1">
          <mxGeometry x="858" y="540" width="234" height="93" as="geometry" />
        </mxCell>
        <mxCell id="nHpbPdlaQZGM8pQ5wMOM-5" value="&lt;font style=&quot;font-size: 69px;&quot;&gt;&lt;i style=&quot;&quot;&gt;&lt;u style=&quot;&quot;&gt;Software Architecture Design&amp;nbsp; for College Website Software Architecture Design Using Draw.io&lt;/u&gt;&lt;/i&gt;&lt;/font&gt;" style="text;html=1;align=center;verticalAlign=middle;resizable=0;points=[];autosize=1;strokeColor=none;fillColor=none;strokeWidth=4;" vertex="1" parent="1">
          <mxGeometry x="-441" y="-1511" width="2903" height="95" as="geometry" />
        </mxCell>
        <mxCell id="nHpbPdlaQZGM8pQ5wMOM-10" value="&lt;font style=&quot;font-size: 41px;&quot;&gt;&lt;b style=&quot;&quot;&gt;NIVESH S&lt;br&gt;&lt;/b&gt;&lt;/font&gt;&lt;div&gt;&lt;span style=&quot;background-color: transparent; color: light-dark(rgb(0, 0, 0), rgb(255, 255, 255));&quot;&gt;&lt;font style=&quot;font-size: 41px;&quot;&gt;&lt;b&gt;&amp;nbsp; &amp;nbsp; &amp;nbsp; &amp;nbsp; &amp;nbsp; &amp;nbsp; &amp;nbsp; &amp;nbsp;BALAMURUGAN M&lt;/b&gt;&lt;/font&gt;&lt;/span&gt;&lt;/div&gt;&lt;div&gt;&lt;font style=&quot;font-size: 41px;&quot;&gt;&lt;b style=&quot;&quot;&gt;&amp;nbsp; &amp;nbsp; &amp;nbsp; &amp;nbsp; &amp;nbsp; &amp;nbsp; &amp;nbsp; RICKY SHARON C&lt;/b&gt;&lt;/font&gt;&lt;/div&gt;" style="text;html=1;align=center;verticalAlign=middle;resizable=0;points=[];autosize=1;strokeColor=none;fillColor=none;" vertex="1" parent="1">
          <mxGeometry x="1598" y="-1322" width="562" height="160" as="geometry" />
        </mxCell>
        <mxCell id="nHpbPdlaQZGM8pQ5wMOM-12" value="&lt;font style=&quot;font-size: 35px;&quot;&gt;&lt;i style=&quot;&quot;&gt;&lt;u style=&quot;&quot;&gt;BATCH-4&lt;/u&gt;&lt;/i&gt;&lt;/font&gt;" style="text;html=1;align=center;verticalAlign=middle;resizable=0;points=[];autosize=1;strokeColor=none;fillColor=none;" vertex="1" parent="1">
          <mxGeometry x="1769" y="-1405" width="165" height="54" as="geometry" />
        </mxCell>
      </root>
    </mxGraphModel>
  </diagram>
</mxfile>
